<svg version="1.1" id="Layer_1" xmlns="http://www.w3.org/2000/svg" xmlns:xlink="http://www.w3.org/1999/xlink" x="0px" y="0px"
	 width="100%" viewBox="0 0 476 449" enable-background="new 0 0 476 449" xml:space="preserve">
<path fill="#000000" opacity="1.000000" stroke="none" 
	d="
M315.000000,450.000000 
	C210.000000,450.000000 105.500000,450.000000 1.000000,450.000000 
	C1.000000,300.333344 1.000000,150.666672 1.000000,1.000000 
	C159.666672,1.000000 318.333344,1.000000 477.000000,1.000000 
	C477.000000,150.666672 477.000000,300.333344 477.000000,450.000000 
	C423.166656,450.000000 369.333344,450.000000 315.000000,450.000000 
M339.002441,184.003052 
	C339.002441,184.003052 339.012177,184.000229 339.651703,183.900925 
	C340.766541,182.931244 341.881378,181.961563 343.667999,180.869354 
	C350.853455,174.924103 356.195343,167.224472 357.591492,158.343979 
	C359.930359,143.466965 357.292694,129.219940 345.413300,118.400169 
	C340.150635,113.606941 334.644348,108.844490 326.171326,108.117821 
	C313.924133,103.865776 302.927765,106.845215 292.162079,113.282394 
	C280.941986,119.991280 275.029572,130.479919 273.366852,142.432907 
	C270.908997,160.102051 277.775452,174.708069 292.911163,184.818161 
	C295.495850,186.544617 296.333282,187.944489 295.244904,191.238678 
	C291.468018,202.670013 288.310059,214.304321 284.662079,225.780487 
	C283.095306,230.709320 280.903625,235.439529 278.175232,240.456894 
	C276.568512,240.636932 274.963074,240.960083 273.354889,240.974274 
	C260.909454,241.083984 248.463486,241.133972 235.096176,241.042084 
	C221.402466,241.047867 207.708740,241.053635 193.873962,240.323196 
	C192.732162,236.578857 191.688919,232.801025 190.430023,229.096466 
	C186.679871,218.060944 182.696869,207.102386 179.092834,196.020096 
	C176.484146,187.998566 176.684769,187.926651 183.591537,182.740082 
	C192.586914,175.985077 198.049179,166.715042 199.698593,155.945679 
	C201.278168,145.632385 200.105515,135.180054 193.814148,126.130486 
	C187.455933,116.984749 179.675629,109.791809 167.297989,107.868393 
	C149.960236,102.078117 127.168388,112.302010 118.756409,131.106964 
	C111.384758,147.586288 112.113052,171.273422 138.675079,187.555618 
	C136.132095,195.920944 133.738663,204.386810 130.974792,212.729950 
	C127.828850,222.226379 124.352196,231.613235 120.089653,241.057327 
	C118.097588,241.036575 116.064140,241.265671 114.121948,240.943909 
	C109.877296,240.240662 107.851212,242.112915 105.920052,245.847290 
	C100.657326,256.024109 94.808540,265.897858 88.934845,276.582733 
	C83.851517,285.641754 78.719505,294.673920 73.701012,303.768738 
	C70.007538,310.462250 66.462486,317.237701 62.207104,324.302246 
	C60.995884,326.522736 59.780964,328.741241 58.574085,330.964081 
	C52.610634,341.947632 46.641155,352.927887 40.691418,363.918854 
	C38.451466,368.056702 36.259026,372.220215 33.719563,376.982147 
	C36.078316,376.982147 37.401348,376.982086 38.724380,376.982147 
	C103.324440,376.985229 167.924500,376.989319 232.524551,376.983154 
	C233.685104,376.983032 234.845657,376.860382 236.931671,376.947937 
	C304.223450,376.947937 371.515198,376.947937 440.064392,376.947937 
	C429.938263,358.945496 420.370087,341.934998 410.706055,324.251251 
	C409.801025,322.560333 408.924286,320.853516 407.986481,319.180969 
	C399.719666,304.436859 391.441986,289.698853 382.801422,274.319855 
	C378.267059,266.082367 373.596924,257.915955 369.235199,249.588058 
	C364.548645,240.640060 361.914734,239.099152 351.898346,239.710907 
	C348.928192,231.372330 345.915863,223.048462 343.001190,214.690536 
	C340.682373,208.041138 338.206482,201.425522 336.355743,194.643341 
	C335.523773,191.594543 333.457520,187.968048 337.555695,184.915039 
	C337.725983,184.840973 337.896271,184.766907 338.487366,184.665955 
	C338.738953,184.511353 338.908783,184.293106 339.002441,184.003052 
z"/>
<path fill="#CF2E2D" opacity="1.000000" stroke="none" 
	d="
M121.019295,241.047729 
	C124.352196,231.613235 127.828850,222.226379 130.974792,212.729950 
	C133.738663,204.386810 136.132095,195.920944 138.675079,187.555618 
	C112.113052,171.273422 111.384758,147.586288 118.756409,131.106964 
	C127.168388,112.302010 149.960236,102.078117 167.893433,108.258331 
	C180.759705,115.173424 187.956573,125.781303 190.523834,138.967514 
	C191.890564,145.987381 191.994843,153.889542 190.197113,160.745285 
	C187.229858,172.060959 181.250458,182.047501 170.211517,187.955627 
	C168.864960,188.676331 167.243118,190.824020 167.408401,192.094498 
	C168.152466,197.814041 169.372223,203.483612 170.652512,209.118484 
	C172.300735,216.372696 174.419312,223.526215 175.894669,230.812317 
	C179.339203,247.823380 182.487259,264.894257 185.824844,281.927307 
	C187.150055,288.690308 188.659012,295.417297 190.248932,302.939575 
	C160.661423,302.939575 131.892929,302.939575 103.092476,302.601501 
	C103.032768,301.810516 103.005028,301.357605 102.986137,300.497559 
	C103.206367,298.658264 103.232765,297.168060 103.660751,295.803864 
	C105.637604,289.502502 107.726196,283.236176 109.912933,276.607727 
	C111.200897,272.830292 112.423485,269.424774 113.485970,265.970032 
	C116.037064,257.674896 118.513023,249.356659 121.019295,241.047729 
M179.330399,141.399841 
	C182.231125,139.470123 185.131866,137.540390 188.032593,135.610657 
	C182.397354,133.992874 176.579727,136.934097 174.058182,141.660995 
	C175.897354,141.784637 177.452087,141.889160 178.918640,142.719360 
	C178.623489,143.307373 178.002213,143.950211 178.090225,144.473785 
	C178.450134,146.614670 179.026611,148.719147 179.523346,150.837021 
	C181.431076,150.106873 184.112335,149.918137 185.082626,148.531860 
	C186.997284,145.796310 185.349731,143.480362 182.427750,142.361435 
	C181.389191,141.963715 180.142700,142.108978 179.330399,141.399841 
M157.364471,164.659485 
	C155.840347,166.372116 154.316238,168.084763 152.792130,169.797409 
	C155.592484,170.136169 179.982635,170.048676 182.221497,170.529572 
	C181.394592,162.300735 168.881699,159.012848 157.364471,164.659485 
M157.987457,148.328308 
	C157.459045,146.568558 157.329849,143.681259 156.306656,143.318985 
	C154.849838,142.803177 152.285568,143.675888 151.067856,144.856384 
	C150.299667,145.601120 150.486664,148.622604 151.367203,149.511978 
	C153.294922,151.459045 155.920990,152.479355 157.987457,148.328308 
M152.625946,138.945831 
	C154.546829,139.840668 156.409119,140.928238 158.416534,141.538406 
	C159.255905,141.793518 160.445038,141.116211 161.364883,140.646774 
	C161.498856,140.578400 161.226044,138.864273 160.785004,138.651886 
	C157.212128,136.931259 153.554123,135.387451 149.922073,133.789719 
	C149.567047,134.271301 149.212021,134.752869 148.856995,135.234451 
	C149.868149,136.417053 150.879318,137.599655 152.625946,138.945831 
z"/>
<path fill="#318BC8" opacity="1.000000" stroke="none" 
	d="
M278.995880,240.259979 
	C280.903625,235.439529 283.095306,230.709320 284.662079,225.780487 
	C288.310059,214.304321 291.468018,202.670013 295.244904,191.238678 
	C296.333282,187.944489 295.495850,186.544617 292.911163,184.818161 
	C277.775452,174.708069 270.908997,160.102051 273.366852,142.432907 
	C275.029572,130.479919 280.941986,119.991280 292.162079,113.282394 
	C302.927765,106.845215 313.924133,103.865776 326.623596,108.551025 
	C328.766846,110.201584 330.479309,111.390350 332.145355,112.640915 
	C343.171783,120.917442 348.061249,132.416489 348.923706,145.747696 
	C349.403442,153.163895 349.244873,160.758469 345.265594,167.397171 
	C341.835083,173.120438 337.809906,178.487289 333.740784,184.164673 
	C331.595184,185.442047 329.489227,186.296921 327.999969,187.773697 
	C326.745178,189.017975 325.228668,191.169876 325.499847,192.603851 
	C328.997772,211.099945 332.699646,229.559372 336.551117,247.986038 
	C339.153503,260.436584 342.155121,272.803314 344.814240,285.242554 
	C346.010895,290.840454 346.807434,296.523865 347.817841,302.354828 
	C346.779419,302.606812 346.002075,302.961212 345.225250,302.959991 
	C317.105621,302.916595 288.986053,302.840027 260.842163,302.351929 
	C261.403748,299.212311 261.860687,296.453125 262.601959,293.772583 
	C264.230713,287.882507 266.003204,282.032196 267.924927,275.819519 
	C271.118774,266.233856 274.136719,257.004456 277.069214,247.748032 
	C277.846436,245.294785 278.360809,242.758270 278.995880,240.259979 
M293.241852,142.026718 
	C292.140686,142.262451 290.881531,142.235229 289.968445,142.783936 
	C287.377655,144.340805 286.051300,146.847870 288.185394,149.296616 
	C289.177124,150.434616 292.123474,150.958023 293.598877,150.347198 
	C296.245514,149.251480 296.783752,146.819412 294.845093,144.247070 
	C294.379852,143.629776 294.265076,142.748383 294.791138,141.992554 
	C296.137024,141.813019 297.482880,141.633484 298.828766,141.453964 
	C298.965332,140.872726 299.101929,140.291504 299.238525,139.710266 
	C295.145111,137.675598 291.051697,135.640930 286.958282,133.606247 
	C286.509644,134.262619 286.061005,134.919006 285.612335,135.575378 
	C286.943756,136.727249 288.225128,137.944489 289.620605,139.012665 
	C291.026794,140.089005 292.546265,141.017288 293.241852,142.026718 
M316.447601,164.936234 
	C309.204376,159.748825 299.208832,160.113632 292.645721,166.061417 
	C291.624329,166.987076 291.509705,168.913361 291.097992,170.041901 
	C296.590973,168.174210 301.260620,165.272278 305.848114,165.396820 
	C310.421967,165.520981 314.913422,168.679535 319.441010,170.507706 
	C319.691895,170.299484 319.942780,170.091263 320.193634,169.883041 
	C319.120880,168.409592 318.048126,166.936142 316.447601,164.936234 
M318.428497,150.972961 
	C319.931213,149.559280 322.209869,148.349869 322.655304,146.657852 
	C322.937500,145.585953 320.724091,143.338760 319.159088,142.531570 
	C318.445496,142.163513 315.829285,143.734192 315.422150,144.896866 
	C314.644440,147.117950 314.067566,149.973862 318.428497,150.972961 
M322.499725,134.191635 
	C318.694092,135.905090 313.720459,136.047272 312.576630,141.508728 
	C316.260010,140.645630 319.697815,139.365784 322.951904,137.722153 
	C323.463379,137.463791 323.141876,135.556351 322.499725,134.191635 
z"/>
<path fill="#F8EFCE" opacity="1.000000" stroke="none" 
	d="
M410.801880,324.924469 
	C420.370087,341.934998 429.938263,358.945496 440.064392,376.947937 
	C371.515198,376.947937 304.223450,376.947937 236.481430,376.417358 
	C236.009933,358.913055 235.988693,341.939331 236.438416,324.953033 
	C294.873566,324.935120 352.837708,324.929810 410.801880,324.924469 
z"/>
<path fill="#C08B59" opacity="1.000000" stroke="none" 
	d="
M235.967438,324.965607 
	C235.988693,341.939331 236.009933,358.913055 236.018707,376.340820 
	C234.845657,376.860382 233.685104,376.983032 232.524551,376.983154 
	C167.924500,376.989319 103.324440,376.985229 38.724380,376.982147 
	C37.401348,376.982086 36.078316,376.982147 33.719563,376.982147 
	C36.259026,372.220215 38.451466,368.056702 40.691418,363.918854 
	C46.641155,352.927887 52.610634,341.947632 58.574085,330.964081 
	C59.780964,328.741241 60.995884,326.522736 62.861229,324.400909 
	C65.333153,324.601746 67.150856,324.791351 68.968758,324.793182 
	C112.855797,324.837219 156.742859,324.852448 200.629898,324.894592 
	C212.430862,324.905945 224.231750,324.988159 236.019043,325.017334 
	C236.005417,324.996857 235.967438,324.965607 235.967438,324.965607 
z"/>
<path fill="#AB2221" opacity="1.000000" stroke="none" 
	d="
M103.124435,302.939575 
	C131.892929,302.939575 160.661423,302.939575 190.248932,302.939575 
	C188.659012,295.417297 187.150055,288.690308 185.824844,281.927307 
	C182.487259,264.894257 179.339203,247.823380 175.894669,230.812317 
	C174.419312,223.526215 172.300735,216.372696 170.652512,209.118484 
	C169.372223,203.483612 168.152466,197.814041 167.408401,192.094498 
	C167.243118,190.824020 168.864960,188.676331 170.211517,187.955627 
	C181.250458,182.047501 187.229858,172.060959 190.197113,160.745285 
	C191.994843,153.889542 191.890564,145.987381 190.523834,138.967514 
	C187.956573,125.781303 180.759705,115.173424 168.264359,108.415298 
	C179.675629,109.791809 187.455933,116.984749 193.814148,126.130486 
	C200.105515,135.180054 201.278168,145.632385 199.698593,155.945679 
	C198.049179,166.715042 192.586914,175.985077 183.591537,182.740082 
	C176.684769,187.926651 176.484146,187.998566 179.092834,196.020096 
	C182.696869,207.102386 186.679871,218.060944 190.430023,229.096466 
	C191.688919,232.801025 192.732162,236.578857 193.958496,241.070892 
	C195.003113,244.423447 196.060593,246.997131 196.905457,249.638824 
	C199.730316,258.471527 202.479111,267.328552 205.404678,276.511536 
	C206.352188,279.457886 207.199661,282.055542 207.942383,284.682800 
	C209.664551,290.774628 211.336090,296.880768 213.018845,303.440094 
	C213.008102,304.898102 213.006195,305.897125 213.005341,306.896149 
	C212.998398,314.985840 212.998444,314.986328 204.722122,314.986450 
	C174.751328,314.986847 144.780243,315.063263 114.809868,314.950989 
	C102.064827,314.903229 102.805107,317.411865 103.124435,302.939575 
z"/>
<path fill="#BD8D5E" opacity="1.000000" stroke="none" 
	d="
M410.753967,324.587860 
	C352.837708,324.929810 294.873566,324.935120 236.438416,324.953033 
	C235.967438,324.965607 236.005417,324.996857 236.005646,324.546143 
	C235.991852,308.054840 235.977829,292.014191 236.435425,275.976624 
	C247.177048,276.041626 257.447052,276.103638 267.717041,276.165649 
	C266.003204,282.032196 264.230713,287.882507 262.601959,293.772583 
	C261.860687,296.453125 261.403748,299.212311 260.560974,302.685547 
	C260.183716,305.751526 260.184174,308.081787 259.916809,310.380920 
	C259.420135,314.652008 260.915558,316.125092 265.463318,316.080902 
	C288.945740,315.852783 312.431641,315.988068 335.916351,315.993103 
	C346.409546,315.995361 356.904236,315.888153 367.395050,316.044830 
	C370.849823,316.096436 372.439545,314.890228 372.006744,311.431641 
	C371.514099,307.494324 371.276245,303.482574 370.320526,299.654694 
	C368.361237,291.807281 365.996674,284.061035 364.277374,276.188690 
	C366.732513,276.062500 368.714569,276.098572 370.684784,275.962738 
	C374.848969,275.675751 379.006958,275.298981 383.167480,274.959045 
	C391.441986,289.698853 399.719666,304.436859 407.986481,319.180969 
	C408.924286,320.853516 409.801025,322.560333 410.753967,324.587860 
z"/>
<path fill="#F8ECCB" opacity="1.000000" stroke="none" 
	d="
M235.963806,275.973572 
	C235.977829,292.014191 235.991852,308.054840 236.019287,324.566650 
	C224.231750,324.988159 212.430862,324.905945 200.629898,324.894592 
	C156.742859,324.852448 112.855797,324.837219 68.968758,324.793182 
	C67.150856,324.791351 65.333153,324.601746 63.183327,324.238098 
	C66.462486,317.237701 70.007538,310.462250 73.701012,303.768738 
	C78.719505,294.673920 83.851517,285.641754 89.516335,276.269470 
	C96.656799,276.289917 103.215767,276.623627 109.774742,276.957306 
	C107.726196,283.236176 105.637604,289.502502 103.660751,295.803864 
	C103.232765,297.168060 103.206367,298.658264 102.626724,300.744141 
	C102.258446,306.150299 102.258446,310.902710 102.258446,315.758179 
	C139.585876,315.758179 176.586807,315.758179 214.414749,315.758179 
	C213.928604,311.278442 213.478378,307.129761 213.028152,302.981110 
	C211.336090,296.880768 209.664551,290.774628 207.942383,284.682800 
	C207.199661,282.055542 206.352188,279.457886 205.853729,276.470947 
	C216.114914,276.074005 226.074692,276.052948 236.014862,276.019653 
	C235.995270,276.007416 235.963806,275.973572 235.963806,275.973572 
z"/>
<path fill="#1D719B" opacity="1.000000" stroke="none" 
	d="
M363.798950,276.273132 
	C365.996674,284.061035 368.361237,291.807281 370.320526,299.654694 
	C371.276245,303.482574 371.514099,307.494324 372.006744,311.431641 
	C372.439545,314.890228 370.849823,316.096436 367.395050,316.044830 
	C356.904236,315.888153 346.409546,315.995361 335.916351,315.993103 
	C312.431641,315.988068 288.945740,315.852783 265.463318,316.080902 
	C260.915558,316.125092 259.420135,314.652008 259.916809,310.380920 
	C260.184174,308.081787 260.183716,305.751526 260.585297,303.101685 
	C288.986053,302.840027 317.105621,302.916595 345.225250,302.959991 
	C346.002075,302.961212 346.779419,302.606812 347.817841,302.354828 
	C346.807434,296.523865 346.010895,290.840454 344.814240,285.242554 
	C342.155121,272.803314 339.153503,260.436584 336.551117,247.986038 
	C332.699646,229.559372 328.997772,211.099945 325.499847,192.603851 
	C325.228668,191.169876 326.745178,189.017975 327.999969,187.773697 
	C329.489227,186.296921 331.595184,185.442047 334.053528,184.193756 
	C335.451019,184.383102 336.228882,184.696365 337.006714,185.009628 
	C333.457520,187.968048 335.523773,191.594543 336.355743,194.643341 
	C338.206482,201.425522 340.682373,208.041138 343.001190,214.690536 
	C345.915863,223.048462 348.928192,231.372330 352.023163,240.456055 
	C352.266632,242.160736 352.247925,243.162231 352.526245,244.072983 
	C354.336792,249.997910 356.073273,255.951385 358.108673,261.799927 
	C359.811157,266.691925 361.887939,271.453705 363.798950,276.273132 
z"/>
<path fill="#F7EFCE" opacity="1.000000" stroke="none" 
	d="
M267.924927,275.819519 
	C257.447052,276.103638 247.177048,276.041626 236.435425,275.976624 
	C235.963806,275.973572 235.995270,276.007416 236.006500,275.548889 
	C236.017731,263.794373 236.017715,252.498413 236.017685,241.202454 
	C248.463486,241.133972 260.909454,241.083984 273.354889,240.974274 
	C274.963074,240.960083 276.568512,240.636932 278.585571,240.358429 
	C278.360809,242.758270 277.846436,245.294785 277.069214,247.748032 
	C274.136719,257.004456 271.118774,266.233856 267.924927,275.819519 
z"/>
<path fill="#C08B5A" opacity="1.000000" stroke="none" 
	d="
M235.556931,241.122269 
	C236.017715,252.498413 236.017731,263.794373 236.026093,275.561096 
	C226.074692,276.052948 216.114914,276.074005 205.706100,276.135681 
	C202.479111,267.328552 199.730316,258.471527 196.905457,249.638824 
	C196.060593,246.997131 195.003113,244.423447 194.029037,241.439011 
	C207.708740,241.053635 221.402466,241.047867 235.556931,241.122269 
z"/>
<path fill="#1D709A" opacity="1.000000" stroke="none" 
	d="
M337.281189,184.962341 
	C336.228882,184.696365 335.451019,184.383102 334.360413,184.040771 
	C337.809906,178.487289 341.835083,173.120438 345.265594,167.397171 
	C349.244873,160.758469 349.403442,153.163895 348.923706,145.747696 
	C348.061249,132.416489 343.171783,120.917442 332.145355,112.640915 
	C330.479309,111.390350 328.766846,110.201584 327.010681,108.654938 
	C334.644348,108.844490 340.150635,113.606941 345.413300,118.400169 
	C357.292694,129.219940 359.930359,143.466965 357.591492,158.343979 
	C356.195343,167.224472 350.853455,174.924103 343.101746,180.684265 
	C339.205444,179.496872 339.162140,181.802231 339.012177,184.000229 
	C339.012177,184.000229 339.002441,184.003052 338.818268,184.081848 
	C338.399933,184.290070 338.210754,184.467468 338.066559,184.692825 
	C337.896271,184.766907 337.725983,184.840973 337.281189,184.962341 
z"/>
<path fill="#C08A5B" opacity="1.000000" stroke="none" 
	d="
M109.912933,276.607727 
	C103.215767,276.623627 96.656799,276.289917 89.644897,275.923950 
	C94.808540,265.897858 100.657326,256.024109 105.920052,245.847290 
	C107.851212,242.112915 109.877296,240.240662 114.121948,240.943909 
	C116.064140,241.265671 118.097588,241.036575 120.554474,241.052521 
	C118.513023,249.356659 116.037064,257.674896 113.485970,265.970032 
	C112.423485,269.424774 111.200897,272.830292 109.912933,276.607727 
z"/>
<path fill="#F5EFD1" opacity="1.000000" stroke="none" 
	d="
M364.277405,276.188690 
	C361.887939,271.453705 359.811157,266.691925 358.108673,261.799927 
	C356.073273,255.951385 354.336792,249.997910 352.526245,244.072983 
	C352.247925,243.162231 352.266632,242.160736 352.114990,240.831863 
	C361.914734,239.099152 364.548645,240.640060 369.235199,249.588058 
	C373.596924,257.915955 378.267059,266.082367 382.984436,274.639435 
	C379.006958,275.298981 374.848969,275.675751 370.684784,275.962738 
	C368.714569,276.098572 366.732513,276.062500 364.277405,276.188690 
z"/>
<path fill="#1D719B" opacity="1.000000" stroke="none" 
	d="
M339.331940,183.950577 
	C339.162140,181.802231 339.205444,179.496872 342.765869,180.745529 
	C341.881378,181.961563 340.766541,182.931244 339.331940,183.950577 
z"/>
<path fill="#1D719B" opacity="1.000000" stroke="none" 
	d="
M338.276978,184.679382 
	C338.210754,184.467468 338.399933,184.290070 338.815491,184.085938 
	C338.908783,184.293106 338.738953,184.511353 338.276978,184.679382 
z"/>
<path fill="#893325" opacity="1.000000" stroke="none" 
	d="
M213.018845,303.440094 
	C213.478378,307.129761 213.928604,311.278442 214.414749,315.758179 
	C176.586807,315.758179 139.585876,315.758179 102.258446,315.758179 
	C102.258446,310.902710 102.258446,306.150299 102.617859,301.151306 
	C103.005028,301.357605 103.032768,301.810516 103.092476,302.601501 
	C102.805107,317.411865 102.064827,314.903229 114.809868,314.950989 
	C144.780243,315.063263 174.751328,314.986847 204.722122,314.986450 
	C212.998444,314.986328 212.998398,314.985840 213.005341,306.896149 
	C213.006195,305.897125 213.008102,304.898102 213.018845,303.440094 
z"/>
<path fill="#B3201E" opacity="1.000000" stroke="none" 
	d="
M157.635437,164.400009 
	C168.881699,159.012848 181.394592,162.300735 182.221497,170.529572 
	C179.982635,170.048676 155.592484,170.136169 152.792130,169.797409 
	C154.316238,168.084763 155.840347,166.372116 157.635437,164.400009 
z"/>
<path fill="#B12120" opacity="1.000000" stroke="none" 
	d="
M178.991135,142.006378 
	C180.142700,142.108978 181.389191,141.963715 182.427750,142.361435 
	C185.349731,143.480362 186.997284,145.796310 185.082626,148.531860 
	C184.112335,149.918137 181.431076,150.106873 179.523346,150.837021 
	C179.026611,148.719147 178.450134,146.614670 178.090225,144.473785 
	C178.002213,143.950211 178.623489,143.307373 178.959152,142.359680 
	C178.999664,142.000000 178.991135,142.006378 178.991135,142.006378 
z"/>
<path fill="#B22120" opacity="1.000000" stroke="none" 
	d="
M157.950684,148.739227 
	C155.920990,152.479355 153.294922,151.459045 151.367203,149.511978 
	C150.486664,148.622604 150.299667,145.601120 151.067856,144.856384 
	C152.285568,143.675888 154.849838,142.803177 156.306656,143.318985 
	C157.329849,143.681259 157.459045,146.568558 157.950684,148.739227 
z"/>
<path fill="#B6201E" opacity="1.000000" stroke="none" 
	d="
M179.003250,141.996826 
	C177.452087,141.889160 175.897354,141.784637 174.058182,141.660995 
	C176.579727,136.934097 182.397354,133.992874 188.032593,135.610657 
	C185.131866,137.540390 182.231125,139.470123 179.160767,141.703110 
	C178.991135,142.006378 178.999664,142.000000 179.003250,141.996826 
z"/>
<path fill="#B3211F" opacity="1.000000" stroke="none" 
	d="
M152.258209,138.864044 
	C150.879318,137.599655 149.868149,136.417053 148.856995,135.234451 
	C149.212021,134.752869 149.567047,134.271301 149.922073,133.789719 
	C153.554123,135.387451 157.212128,136.931259 160.785004,138.651886 
	C161.226044,138.864273 161.498856,140.578400 161.364883,140.646774 
	C160.445038,141.116211 159.255905,141.793518 158.416534,141.538406 
	C156.409119,140.928238 154.546829,139.840668 152.258209,138.864044 
z"/>
<path fill="#1973A6" opacity="1.000000" stroke="none" 
	d="
M316.711487,165.199463 
	C318.048126,166.936142 319.120880,168.409592 320.193634,169.883041 
	C319.942780,170.091263 319.691895,170.299484 319.441010,170.507706 
	C314.913422,168.679535 310.421967,165.520981 305.848114,165.396820 
	C301.260620,165.272278 296.590973,168.174210 291.097992,170.041901 
	C291.509705,168.913361 291.624329,166.987076 292.645721,166.061417 
	C299.208832,160.113632 309.204376,159.748825 316.711487,165.199463 
z"/>
<path fill="#1B73A5" opacity="1.000000" stroke="none" 
	d="
M293.989105,141.988434 
	C294.265076,142.748383 294.379852,143.629776 294.845093,144.247070 
	C296.783752,146.819412 296.245514,149.251480 293.598877,150.347198 
	C292.123474,150.958023 289.177124,150.434616 288.185394,149.296616 
	C286.051300,146.847870 287.377655,144.340805 289.968445,142.783936 
	C290.881531,142.235229 292.140686,142.262451 293.621460,142.013702 
	C294.001038,142.000671 293.989105,141.988434 293.989105,141.988434 
z"/>
<path fill="#1A73A4" opacity="1.000000" stroke="none" 
	d="
M318.027771,150.948196 
	C314.067566,149.973862 314.644440,147.117950 315.422150,144.896866 
	C315.829285,143.734192 318.445496,142.163513 319.159088,142.531570 
	C320.724091,143.338760 322.937500,145.585953 322.655304,146.657852 
	C322.209869,148.349869 319.931213,149.559280 318.027771,150.948196 
z"/>
<path fill="#1973A6" opacity="1.000000" stroke="none" 
	d="
M294.008575,142.005554 
	C292.546265,141.017288 291.026794,140.089005 289.620605,139.012665 
	C288.225128,137.944489 286.943756,136.727249 285.612335,135.575378 
	C286.061005,134.919006 286.509644,134.262619 286.958282,133.606247 
	C291.051697,135.640930 295.145111,137.675598 299.238525,139.710266 
	C299.101929,140.291504 298.965332,140.872726 298.828766,141.453964 
	C297.482880,141.633484 296.137024,141.813019 294.390137,141.990494 
	C293.989105,141.988434 294.001038,142.000671 294.008575,142.005554 
z"/>
<path fill="#1973A8" opacity="1.000000" stroke="none" 
	d="
M322.852631,134.301529 
	C323.141876,135.556351 323.463379,137.463791 322.951904,137.722153 
	C319.697815,139.365784 316.260010,140.645630 312.576630,141.508728 
	C313.720459,136.047272 318.694092,135.905090 322.852631,134.301529 
z"/>
</svg>